<svg width="21" height="21" viewBox="0 0 21 21" fill="none" xmlns="http://www.w3.org/2000/svg">
<g clip-path="url(#clip0_34_534)">
<path d="M19.25 1.9687H16.4062V0.656199C16.4064 0.482151 16.3373 0.315185 16.2143 0.192032C16.0914 0.0688796 15.9245 -0.000372093 15.7504 -0.000488125C15.5764 -0.000604158 15.4094 0.068425 15.2863 0.191414C15.1631 0.314402 15.0939 0.481276 15.0938 0.655324V1.9687H11.1562V0.656199C11.1563 0.570019 11.1394 0.484672 11.1065 0.40503C11.0735 0.325388 11.0252 0.253011 10.9643 0.192032C10.9035 0.131053 10.8311 0.0826661 10.7515 0.0496333C10.6719 0.0166006 10.5866 -0.000430682 10.5004 -0.000488135C10.3264 -0.000604167 10.1594 0.068425 10.0363 0.191414C9.91312 0.314402 9.84387 0.481276 9.84375 0.655324V1.9687H5.90625V0.656199C5.90631 0.570019 5.88939 0.484672 5.85646 0.40503C5.82354 0.325388 5.77525 0.253011 5.71435 0.192032C5.65345 0.131053 5.58114 0.0826661 5.50154 0.0496333C5.42194 0.0166006 5.33662 -0.000430682 5.25044 -0.000488135C5.07639 -0.000604167 4.90942 0.068425 4.78627 0.191414C4.66312 0.314402 4.59387 0.481276 4.59375 0.655324V1.9687H1.75C1.28602 1.9687 0.841036 2.15295 0.512872 2.48095C0.184709 2.80895 0.000231989 3.25385 0 3.71782V19.2491C0 19.7132 0.184374 20.1583 0.512563 20.4865C0.840752 20.8147 1.28587 20.9991 1.75 20.9991H19.25C19.7141 20.9991 20.1592 20.8147 20.4874 20.4865C20.8156 20.1583 21 19.7132 21 19.2491V3.71782C20.9998 3.25385 20.8153 2.80895 20.4871 2.48095C20.159 2.15295 19.714 1.9687 19.25 1.9687ZM19.6875 19.2499C19.6875 19.3658 19.6415 19.477 19.5597 19.559C19.4778 19.641 19.3668 19.6872 19.2509 19.6874H1.75C1.63397 19.6874 1.52269 19.6414 1.44064 19.5593C1.35859 19.4773 1.3125 19.366 1.3125 19.2499V3.7187C1.31273 3.60282 1.35893 3.49176 1.44095 3.40991C1.52297 3.32805 1.63412 3.28207 1.75 3.28207H4.59375V4.59457C4.59363 4.76862 4.66266 4.93559 4.78565 5.05874C4.90864 5.18189 5.07551 5.25115 5.24956 5.25126C5.42361 5.25138 5.59058 5.18235 5.71373 5.05936C5.83688 4.93637 5.90613 4.7695 5.90625 4.59545V3.28207H9.84375V4.59457C9.84363 4.76862 9.91266 4.93559 10.0357 5.05874C10.1586 5.18189 10.3255 5.25115 10.4996 5.25126C10.6736 5.25138 10.8406 5.18235 10.9637 5.05936C11.0869 4.93637 11.1561 4.7695 11.1562 4.59545V3.28207H15.0938V4.59457C15.0936 4.76862 15.1627 4.93559 15.2857 5.05874C15.4086 5.18189 15.5755 5.25115 15.7496 5.25126C15.9236 5.25138 16.0906 5.18235 16.2137 5.05936C16.3369 4.93637 16.4061 4.7695 16.4062 4.59545V3.28207H19.25C19.3657 3.28231 19.4767 3.32838 19.5585 3.41021C19.6403 3.49205 19.6864 3.60297 19.6866 3.7187L19.6875 19.2499Z" fill="#808080"/>
<path d="M4.59375 7.875H7.21875V9.84375H4.59375V7.875ZM4.59375 11.1562H7.21875V13.125H4.59375V11.1562ZM4.59375 14.4375H7.21875V16.4062H4.59375V14.4375ZM9.1875 14.4375H11.8125V16.4062H9.1875V14.4375ZM9.1875 11.1562H11.8125V13.125H9.1875V11.1562ZM9.1875 7.875H11.8125V9.84375H9.1875V7.875ZM13.7812 14.4375H16.4062V16.4062H13.7812V14.4375ZM13.7812 11.1562H16.4062V13.125H13.7812V11.1562ZM13.7812 7.875H16.4062V9.84375H13.7812V7.875Z" fill="#808080"/>
</g>
<defs>
<clipPath id="clip0_34_534">
<rect width="21" height="21" fill="white"/>
</clipPath>
</defs>
</svg>
